#!OML:ASF H:\GeneralSubjects\Female5\Project 1\Capture day 1\Session 1\Female5.ASF
:FULLY-SPECIFIED
:DEGREES
833
root -37.8343 16.271 -2.39803 -169.223 -3.25849 -178.308
lowerback 3.83588 2.01487 5.49002
upperback -10.2081 2.38796 -0.643991
thorax -12.9853 0.175891 -4.03984
lowerneck -17.6761 -3.6479 -0.609473
upperneck 30.146 -10.903 9.34749
head 13.8561 -4.49143 1.70541
rclavicle 1.05767e-014 2.30777e-014
rhumerus -50.723 8.58976 -80.4955
rradius 36.2054
rwrist -18.093
rhand -29.9393 -21.0129
rfingers 7.12502
rthumb -3.25885 -50.9677
lclavicle 1.05767e-014 2.30777e-014
lhumerus -47.9156 -10.3534 82.318
lradius 27.6854
lwrist -8.97086
lhand -19.1814 26.4537
lfingers 7.12502
lthumb 7.13002 56.3136
rfemur -4.39774 22.799 33.9732
rtibia 3.67699
rfoot -28.0756 -22.8256
rtoes 6.57315
lfemur 3.46226 -40.4689 -32.0567
ltibia -5.02838
lfoot -38.2907 -16.7239
ltoes -13.049
834
root -37.8523 16.2729 -2.38077 -169.126 -2.88776 -178.256
lowerback 3.87608 2.0923 5.17573
upperback -10.1894 2.46803 -0.631142
thorax -12.9879 0.249152 -3.86268
lowerneck -17.6946 -3.75496 -0.589679
upperneck 30.1184 -11.3215 9.82032
head 13.9228 -4.63491 1.80629
rclavicle 4.71026e-015 -6.06293e-015
rhumerus -51.0075 8.82165 -80.8658
rradius 35.8749
rwrist -17.9784
rhand -29.7625 -21.0328
rfingers 7.12502
rthumb -3.0881 -50.9902
lclavicle 4.71026e-015 -6.06293e-015
lhumerus -47.7491 -10.177 82.0739
lradius 27.9187
lwrist -8.61041
lhand -19.4234 26.0194
lfingers 7.12502
lthumb 6.89642 55.8871
rfemur -4.54441 22.9286 33.8768
rtibia 3.5297
rfoot -27.6338 -22.9619
rtoes 5.99636
lfemur 3.76481 -42.0075 -32.2931
ltibia -5.18491
lfoot -40.5839 -16.3813
ltoes -12.6822
835
root -37.8676 16.2741 -2.36603 -169.023 -2.53264 -178.204
lowerback 3.8785 2.17232 4.83406
upperback -10.1832 2.54438 -0.605445
thorax -12.9847 0.322735 -3.6542
lowerneck -17.6718 -3.83691 -0.620151
upperneck 30.1366 -11.6725 10.2322
head 13.9952 -4.76314 1.90533
rclavicle -4.74598e-015 -2.23633e-015
rhumerus -51.3043 9.11807 -81.2514
rradius 35.4474
rwrist -17.687
rhand -29.5655 -21.0189
rfingers 7.12502
rthumb -2.89781 -50.979
lclavicle -4.74598e-015 -2.23633e-015
lhumerus -47.5965 -10.0209 81.8365
lradius 28.3621
lwrist -7.96464
lhand -20.0737 26.079
lfingers 7.12502
lthumb 6.26865 55.9662
rfemur -4.67237 23.0268 33.797
rtibia 3.365
rfoot -27.198 -23.0654
rtoes 5.47606
lfemur 3.94769 -41.6712 -32.337
ltibia -5.64538
lfoot -40.8872 -15.697
ltoes -12.3886
836
root -37.88 16.2746 -2.35291 -168.91 -2.22151 -178.142
lowerback 3.82982 2.2371 4.49092
upperback -10.1782 2.59611 -0.569566
thorax -12.9554 0.385427 -3.42825
lowerneck -17.6215 -3.87866 -0.66717
upperneck 30.1801 -11.9255 10.5652
head 14.0601 -4.85879 1.99569
rclavicle -4.11236e-015 -1.09332e-015
rhumerus -51.5513 9.44888 -81.6554
rradius 34.9231
rwrist -17.2267
rhand -29.4166 -21.0269
rfingers 7.12502
rthumb -2.75408 -50.9889
lclavicle -4.11236e-015 -1.09332e-015
lhumerus -47.4441 -9.87292 81.5746
lradius 28.9926
lwrist -7.08053
lhand -20.9288 26.4865
lfingers 7.12502
lthumb 5.44313 56.3966
rfemur -4.78527 23.0986 33.7427
rtibia 3.17085
rfoot -26.7841 -23.1553
rtoes 4.97671
lfemur 4.08173 -41.37 -32.3127
ltibia -6.07221
lfoot -41.0603 -15.2495
ltoes -12.089
837
root -37.8902 16.2743 -2.34017 -168.783 -1.9781 -178.06
lowerback 3.73855 2.27503 4.18125
upperback -10.171 2.61264 -0.525321
thorax -12.9004 0.428738 -3.20519
lowerneck -17.5619 -3.87944 -0.701279
upperneck 30.2411 -12.0711 10.7937
head 14.1116 -4.91526 2.06383
rclavicle 1.63997e-015 1.799e-014
rhumerus -51.7371 9.73343 -82.0392
rradius 34.3409
rwrist -16.5877
rhand -29.3238 -21.0787
rfingers 7.12502
rthumb -2.66446 -51.0418
lclavicle 1.63997e-015 1.799e-014
lhumerus -47.3006 -9.79796 81.3337
lradius 29.7838
lwrist -5.92266
lhand -21.8791 27.1419
lfingers 7.12502
lthumb 4.52554 57.0735
rfemur -4.89746 23.1413 33.7218
rtibia 2.95789
rfoot -26.3992 -23.2435
rtoes 4.45928
lfemur 4.14788 -41.1275 -32.2029
ltibia -6.47239
lfoot -41.1619 -14.9678
ltoes -11.6815
838
root -37.8989 16.2732 -2.32693 -168.654 -1.81425 -177.934
lowerback 3.63641 2.28471 3.95632
upperback -10.1659 2.59921 -0.475622
thorax -12.8417 0.448942 -3.01899
lowerneck -17.5015 -3.85415 -0.732223
upperneck 30.3148 -12.1293 10.9259
head 14.1516 -4.94068 2.11075
rclavicle -1.84124e-014 -1.5207e-014
rhumerus -51.8781 9.88265 -82.3471
rradius 33.739
rwrist -15.7869
rhand -29.2396 -21.1355
rfingers 7.12502
rthumb -2.5831 -51.0996
lclavicle -1.84124e-014 -1.5207e-014
lhumerus -47.1412 -9.67344 81.0016
lradius 30.6623
lwrist -4.86399
lhand -22.3331 27.3093
lfingers 7.12502
lthumb 4.08713 57.2498
rfemur -5.01268 23.1575 33.7537
rtibia 2.74236
rfoot -26.0442 -23.3461
rtoes 3.87368
lfemur 4.14436 -40.953 -31.9966
ltibia -6.81474
lfoot -41.2027 -14.8427
ltoes -11.3504
839
root -37.9066 16.271 -2.31292 -168.537 -1.73221 -177.762
lowerback 3.55514 2.26742 3.85131
upperback -10.1666 2.56179 -0.431831
thorax -12.8004 0.444165 -2.90387
lowerneck -17.4473 -3.83791 -0.812819
upperneck 30.3964 -12.1587 11.0122
head 14.192 -4.96145 2.15397
rclavicle -3.60297e-016 -7.35503e-015
rhumerus -51.9759 9.88739 -82.5664
rradius 33.1394
rwrist -14.9412
rhand -29.1411 -21.1723
rfingers 7.12502
rthumb -2.48795 -51.1375
lclavicle -3.60297e-016 -7.35503e-015
lhumerus -46.9702 -9.53781 80.5913
lradius 31.5774
lwrist -3.95854
lhand -22.549 27.2157
lfingers 7.12502
lthumb 3.87867 57.1601
rfemur -5.12416 23.1437 33.844
rtibia 2.54241
rfoot -25.7044 -23.4769
rtoes 3.18
lfemur 4.09572 -40.8481 -31.7162
ltibia -7.13122
lfoot -41.1879 -14.8568
ltoes -10.9531
840
root -37.9141 16.2676 -2.2983 -168.447 -1.726 -177.558
lowerback 3.51531 2.22955 3.82813
upperback -10.1727 2.507 -0.39129
thorax -12.7897 0.421716 -2.8374
lowerneck -17.3956 -3.82927 -0.914422
upperneck 30.4735 -12.1698 11.0641
head 14.2269 -4.97864 2.19097
rclavicle 3.64894e-014 1.41137e-014
rhumerus -52.0638 9.8139 -82.7035
rradius 32.6014
rwrist -14.2523
rhand -29.0317 -21.1613
rfingers 7.12502
rthumb -2.38234 -51.1277
lclavicle 3.64894e-014 1.41137e-014
lhumerus -46.7672 -9.39428 80.1276
lradius 32.4737
lwrist -3.1317
lhand -22.7819 27.0978
lfingers 7.12502
lthumb 3.65368 57.0462
rfemur -5.21923 23.0762 33.9818
rtibia 2.36144
rfoot -25.3395 -23.6421
rtoes 2.34659
lfemur 4.03092 -40.8107 -31.4091
ltibia -7.40344
lfoot -41.1829 -14.8711
ltoes -10.5448
841
root -37.9221 16.2639 -2.28364 -168.39 -1.77398 -177.346
lowerback 3.51649 2.17979 3.84501
upperback -10.181 2.44284 -0.354961
thorax -12.8063 0.390093 -2.79828
lowerneck -17.3565 -3.83898 -1.03301
upperneck 30.5449 -12.1866 11.0923
head 14.261 -5.00082 2.22038
rclavicle -4.09993e-015 -1.98785e-015
rhumerus -52.1462 9.66908 -82.763
rradius 32.1421
rwrist -13.8167
rhand -28.9236 -21.0979
rfingers 7.12502
rthumb -2.27794 -51.0655
lclavicle -4.09993e-015 -1.98785e-015
lhumerus -46.5083 -9.17065 79.6013
lradius 33.2877
lwrist -2.50596
lhand -23.1417 27.0364
lfingers 7.12502
lthumb 3.30623 56.9905
rfemur -5.27622 22.9855 34.142
rtibia 2.17697
rfoot -24.9645 -23.8565
rtoes 1.39841
lfemur 3.98375 -40.8248 -31.1273
ltibia -7.63922
lfoot -41.1821 -14.9022
ltoes -10.1799
